<?xml version="1.0" encoding="UTF-8"?>
<!DOCTYPE svg PUBLIC "-//W3C//DTD SVG 1.1//EN" "http://www.w3.org/Graphics/SVG/1.1/DTD/svg11.dtd">
<!-- Creator: CorelDRAW 2020 (64-Bit) -->
<svg xmlns="http://www.w3.org/2000/svg" xml:space="preserve" width="11.6929in" height="8.26772in" version="1.1" style="shape-rendering:geometricPrecision; text-rendering:geometricPrecision; image-rendering:optimizeQuality; fill-rule:evenodd; clip-rule:evenodd"
viewBox="0 0 11692.91 8267.72"
 xmlns:xlink="http://www.w3.org/1999/xlink"
 xmlns:xodm="http://www.corel.com/coreldraw/odm/2003">
 <defs>
  <style type="text/css">
   <![CDATA[
    .fil0 {fill:#C90000}
   ]]>
  </style>
 </defs>
 <g id="Layer_x0020_1">
  <metadata id="CorelCorpID_0Corel-Layer"/>
  <path class="fil0" d="M5048.61 4217.74c25.3,293.27 177.99,821.49 231.94,1196.48l285.98 -526.95c3.72,0.06 55.67,42.96 290.3,46.13 234.63,3.17 732.81,-197.44 788.76,-731.92 0.24,-3.5 0.46,-6.99 0.66,-10.49l0.13 -2.35c2.71,-50.06 0.65,-99.76 -5.89,-148.54l0.04 0.01 -0.08 -0.45c-3.15,-23.33 -7.34,-46.46 -12.5,-69.31l-244.83 -1116.83 -279.54 533.95c-3.53,-1.2 -7.04,-2.41 -10.59,-3.57 -420.84,-136.15 -872.38,94.63 -1008.54,515.48 -34.29,106.02 -45.28,213.99 -35.84,318.38zm811.64 -619.25c115.4,0 222.71,34.57 312.19,93.89 49.96,-51.62 106.5,-64.87 169.63,-39.76 50.71,25.87 78,70.91 81.85,135.15 -3.75,51.92 -25.04,89 -63.87,111.19 42.08,79.13 65.96,169.41 65.96,265.28 0,312.46 -253.29,565.75 -565.76,565.75 -312.45,0 -565.74,-253.29 -565.74,-565.75 0,-96.02 23.94,-186.41 66.14,-265.62 -33.92,-22.59 -52.63,-58.06 -56.11,-106.43 3.84,-64.24 31.13,-109.28 81.83,-135.13 60.7,-24.17 115.31,-12.84 163.82,33.94 89.05,-58.48 195.58,-92.51 310.07,-92.51zm-185.09 353.31c49.29,0 89.28,41.93 89.28,93.67 0,51.74 -39.98,93.68 -89.28,93.68 -49.31,0 -89.27,-41.94 -89.27,-93.68 0,-51.74 39.96,-93.67 89.27,-93.67zm492.61 501.43c-171.32,88.2 -335.15,77.17 -456.26,-52.86 85.86,-39.76 149.05,-164.29 154.26,-353.78 24.68,-70.33 136.69,-105.93 220.44,-17.66 29.44,-90.63 110.44,-111.16 165.32,-55.09 48.19,37.78 39.55,140.13 -50.69,163.09 122.07,105.23 111.04,210.64 -33.07,316.31zm-56.75 -250.17c66.06,0 119.58,34.05 119.58,76.02 0,42.04 -53.52,76.07 -119.58,76.07 -66.03,0 -119.58,-34.04 -119.58,-76.07 0,-41.98 53.55,-76.02 119.58,-76.02z"/>
 </g>
</svg>
